# AST/ASF file generated using VICON BodyLanguage
# -----------------------------------------------
:version 1.10
:name VICON
:units
  mass 1.0
  length 0.45
  angle deg
:documentation
   .ast/.asf automatically generated from VICON data using
   VICON BodyBuilder and BodyLanguage model FoxedUp or BRILLIANT.MOD
:root
   order TX TY TZ RX RY RZ
   axis XYZ
   position 0 0 0  
   orientation 0 0 0 
:bonedata
  begin
     id 1 
     name lhipjoint
     direction 0.756833 -0.6125 0.228138 
     length 2.53827 
     axis 0 0 0  XYZ
  end
  begin
     id 2 
     name lfemur
     direction 0.34202 -0.939693 0  
     length 6.51821  
     axis 0 0 20  XYZ
    dof rx ry rz
    limits (-160.0 20.0)
           (-70.0 70.0)
           (-60.0 70.0)
  end
  begin
     id 3 
     name ltibia
     direction 0.34202 -0.939693 0   
     length 6.99902   
     axis 0 0 20   XYZ
    dof rx
    limits (-10.0 170.0)
  end
  begin
     id 4 
     name lfoot
     direction 0.0951515 -0.261427 0.960522   
     length 1.92102   
     axis -90 7.62852e-016 20   XYZ
    dof rx rz
    limits (-45.0 90.0)
           (-70.0 20.0)
  end
  begin
     id 5 
     name ltoes
     direction 1.53539e-011 -4.21781e-011 1   
     length 0.964376   
     axis -90 7.62852e-016 20   XYZ
    dof rx
    limits (-90.0 20.0)
  end
  begin
     id 6 
     name rhipjoint
     direction -0.752153 -0.617542 0.230017   
     length 2.51754  
     axis 0 0 0  XYZ 
  end
  begin
     id 7 
     name rfemur
     direction -0.34202 -0.939693 0   
     length 6.82377   
     axis 0 0 -20   XYZ
    dof rx ry rz
    limits (-160.0 20.0)
           (-70.0 70.0)
           (-70.0 60.0)
  end
  begin
     id 8 
     name rtibia
     direction -0.34202 -0.939693 0   
     length 6.98689   
     axis 0 0 -20   XYZ
    dof rx
    limits (-10.0 170.0)
 end
 begin
     id 9 
     name rfoot
     direction -0.0900426 -0.24739 0.964723   
     length 2.03215  
     axis -90 -7.62852e-016 -20   XYZ
    dof rx rz
    limits (-45.0 90.0)
           (-20.0 70.0)
  end
  begin
     id 10 
     name rtoes
     direction -1.53466e-011 -4.22206e-011 1   
     length 1.0197   
     axis -90 -7.62852e-016 -20   XYZ
    dof rx
    limits (-90.0 20.0)
  end
  begin
     id 11 
     name lowerback
     direction 0.0184183 0.995705 -0.0907278   
     length 2.019   
     axis 0 0 0   XYZ
    dof rx ry rz
    limits (-20.0 45.0)
           (-30.0 30.0)
           (-30.0 30.0)
  end
  begin
     id 12 
     name upperback
     direction 0.00281055 0.998777 0.0493607   
     length 1.99623   
     axis 0 0 0   XYZ
    dof rx ry rz
    limits (-20.0 45.0)
           (-30.0 30.0)
           (-30.0 30.0)
  end
  begin
     id 13 
     name thorax
     direction -0.00665507 0.995706 0.092331   
     length 2.02811   
     axis 0 0 0   XYZ
    dof rx ry rz
    limits (-20.0 45.0)
           (-30.0 30.0)
           (-30.0 30.0)
  end
  begin
     id 14 
     name lowerneck
     direction -0.0960965 0.994358 0.0449225   
     length 1.71265   
     axis 0 0 0   XYZ
    dof rx ry rz
    limits (-20.0 45.0)
           (-30.0 30.0)
           (-30.0 30.0)
  end
  begin
     id 15 
     name upperneck
     direction 0.13642 0.985357 -0.102278   
     length 1.73016   
     axis 0 0 0   XYZ
    dof rx ry rz
    limits (-20.0 45.0)
           (-30.0 30.0)
           (-30.0 30.0)
  end
  begin
     id 16
     name head
     direction 0.0556079 0.997632 -0.040479  
     length 1.74275  
     axis 0 0 0   XYZ
    dof rx ry rz
    limits (-20.0 45.0)
           (-30.0 30.0)
           (-30.0 30.0)
  end
  begin
     id 17 
     name lclavicle
     direction 0.90877 0.417247 -0.00652364  
     length 3.25514  
     axis 0 0 0   XYZ
    dof ry rz
    limits (-20.0 10.0)
           (0.0 20.0)
  end
  begin
     id 18 
     name lhumerus
     direction 1 -4.48949e-011 8.31417e-028   
     length 4.84834   
     axis 180 -30 -90   XYZ
    dof rx ry rz
    limits (-60.0 90.0)
           (-90.0 90.0)
           (-90.0 90.0)
  end
  begin
     id 19
     name lradius
     direction 1 -4.48984e-011 3.45616e-027   
     length 2.99713   
     axis 180 -30 -90   XYZ
    dof rx
    limits (-10.0 170.0)
  end
  begin
     id 20
     name lwrist
     direction 1 -4.4891e-011 4.0479e-027   
     length 1.49857   
     axis -1.61768e-015 90 90   XYZ
    dof ry
    limits (-180.0 0.0)
 end
  begin
     id 21 
     name lhand
     direction 1 -4.49025e-011 8.0958e-027   
     length 0.693987   
     axis -5.16581e-015 90 90   XYZ
    dof rx rz
    limits (-90.0 90.0)
           (-45.0 45.0)
  end
  begin
     id 22 
     name lfingers
     direction 1 -4.4888e-011 1.61916e-026   
     length 0.55951   
     axis -1.03316e-014 90 90   XYZ
    dof rx
    limits (0.0 90.0)
  end
  begin
     id 23
     name lthumb
     direction 0.707107 -6.3493e-011 0.707107   
     length 0.803348   
     axis -90 45 2.85299e-015   XYZ
    dof rx rz
    limits (-45.0 45.0)
           (-45.0 45.0)
  end
  begin
     id 24 
     name rclavicle
     direction -0.906655 0.41906 0.0486307   
     length 3.3311  
     axis 0 0 0   XYZ 
    dof ry rz
    limits (-10.0 20.0)
           (-20.0 0.0)
  end
  begin
     id 25 
     name rhumerus
     direction -1 -4.48959e-011 6.37764e-018  
     length 4.93457   
     axis 180 30 90   XYZ
    dof rx ry rz
    limits (-90.0 60.0)
           (-90.0 90.0)
           (-90.0 90.0)
  end
  begin
     id 26 
     name rradius
     direction -1 -4.48957e-011 2.20847e-027   
     length 3.3443   
     axis 180 30 90   XYZ
    dof rx
    limits (-10.0 170.0)
  end
  begin
     id 27 
     name rwrist
     direction -1 -4.49008e-011 4.0479e-027   
     length 1.67215   
     axis -1.61768e-015 -90 -90   XYZ
    dof ry
    limits (-180.0 0.0)
  end
  begin
     id 28
     name rhand
     direction -1 -4.49013e-011 8.0958e-027   
     length 0.677363   
     axis -5.16581e-015 -90 -90   XYZ
    dof rx rz
    limits (-90.0 90.0)
           (-45.0 45.0)
  end
  begin
     id 29
     name rfingers
     direction -1 -4.48832e-011 1.61916e-026   
     length 0.546107   
     axis -1.03316e-014 -90 -90   XYZ
    dof rx
    limits (0.0 90.0)
  end
  begin
     id 30
     name rthumb
     direction -0.707107 -6.34895e-011 0.707107   
     length 0.784104   
     axis -90 -45 -2.85299e-015   XYZ
    dof rx rz
    limits (-45.0 45.0)
           (-45.0 45.0)
  end
:hierarchy
  begin
    root lhipjoint rhipjoint lowerback
    lhipjoint lfemur
    lfemur ltibia
    ltibia lfoot
    lfoot ltoes
    rhipjoint rfemur
    rfemur rtibia
    rtibia rfoot
    rfoot rtoes
    lowerback upperback
    upperback thorax
    thorax lowerneck lclavicle rclavicle
    lowerneck upperneck
    upperneck head
    lclavicle lhumerus
    lhumerus lradius
    lradius lwrist
    lwrist lhand lthumb
    lhand lfingers
    rclavicle rhumerus
    rhumerus rradius
    rradius rwrist
    rwrist rhand rthumb
    rhand rfingers
  end

#!OML:ASF H:\Terrain\Patient Classification 1\junglegym\FridayTest\junglegym.ASF
:FULLY-SPECIFIED
:DEGREES
604
root 2.30814 17.266 1.23072 208.672 -83.9501 -198.524
lowerback 25.552 0.520758 -1.6066
upperback -1.78982 -0.272828 -2.33835
thorax -16.5766 -0.161802 -1.70799
lowerneck 2.50522 0.65002 -8.11605
upperneck 34.4409 -3.08703 7.71704
head 10.874 -2.40551 3.91634
rclavicle -4.17448e-015 1.98785e-014
rhumerus 101.986 -21.9792 -68.0695
rradius 29.3089
rwrist 12.582
rhand -24.9742 41.8147
rfingers 7.12502
rthumb 1.53652 11.8405
lclavicle -4.17448e-015 1.98785e-014
lhumerus 106.14 14.5192 64.4311
lradius 32.9725
lwrist -36.4024
lhand -17.0933 19.505
lfingers 7.12502
lthumb 9.14533 49.2867
rfemur -57.3277 17.3859 13.8657
rtibia 39.6582
rfoot -9.19131 -11.4108
rtoes 44.8938
lfemur -56.1205 -20.7116 -6.15026
ltibia 30.8774
lfoot -1.07342 21.3964
ltoes -29.801
605
root 1.97857 17.0409 1.25478 206.401 -84.2766 -196.986
lowerback 25.1735 0.238212 -0.551026
upperback -1.73279 -0.328067 -2.46906
thorax -16.2919 -0.28687 -2.4414
lowerneck 1.80305 0.65593 -8.4388
upperneck 34.9653 -3.19647 8.19751
head 11.2395 -2.45074 4.16265
rclavicle -5.56597e-015 -1.19271e-015
rhumerus 101.827 -22.4752 -67.7487
rradius 29.4533
rwrist 11.8969
rhand -24.5201 41.5238
rfingers 7.12502
rthumb 1.97504 11.5532
lclavicle -5.56597e-015 -1.19271e-015
lhumerus 106.337 14.5715 64.3318
lradius 32.8851
lwrist -36.0467
lhand -16.7074 19.4301
lfingers 7.12502
lthumb 9.51763 49.1951
rfemur -57.0942 12.3504 18.2171
rtibia 39.1165
rfoot -3.9314 -7.01264
rtoes 36.4319
lfemur -57.2319 -20.9088 -5.61294
ltibia 31.5426
lfoot 0.0132841 21.5757
ltoes -31.2211
606
root 1.71236 16.9115 1.26342 188.701 -84.429 -179.831
lowerback 24.8128 0.0776624 1.35638
upperback -1.95066 0.106815 -2.18184
thorax -16.326 -0.242568 -3.37389
lowerneck 2.14499 0.600125 -7.96682
upperneck 35.1073 -3.36312 8.06121
head 11.2415 -2.50873 4.0128
rclavicle 2.5842e-015 5.56597e-015
rhumerus 101.612 -22.4776 -67.82
rradius 29.3263
rwrist 11.7771
rhand -23.9883 41.4786
rfingers 7.12502
rthumb 2.48869 11.5134
lclavicle 2.5842e-015 5.56597e-015
lhumerus 106.444 14.0591 64.6779
lradius 32.579
lwrist -36.0159
lhand -16.676 18.8818
lfingers 7.12502
lthumb 9.54797 48.6455
rfemur -57.7428 11.4577 20.8256
rtibia 38.654
rfoot -2.05353 -5.49475
rtoes 35.2062
lfemur -58.3774 -20.1061 -3.52812
ltibia 32.2252
lfoot 0.502162 21.6556
ltoes -31.2669
607
root 1.42705 16.7914 1.2639 185.225 -84.3545 -177.144
lowerback 24.3922 0.0379739 1.9114
upperback -2.30973 0.22974 -2.17552
thorax -16.5102 -0.242214 -3.73613
lowerneck 2.88318 0.595214 -7.47439
upperneck 35.6964 -3.49569 7.58292
head 11.3462 -2.62095 3.74148
rclavicle 1.05356e-014 -1.66979e-014
rhumerus 101.025 -21.9341 -67.777
rradius 29.0792
rwrist 11.4654
rhand -23.9238 41.5156
rfingers 7.12502
rthumb 2.55095 11.5511
lclavicle 1.05356e-014 -1.66979e-014
lhumerus 105.549 14.4375 63.592
lradius 32.764
lwrist -34.6851
lhand -16.6104 19.7757
lfingers 7.12502
lthumb 9.61125 49.5364
rfemur -58.47 13.8327 19.0428
rtibia 38.1161
rfoot -3.1957 -7.8088
rtoes 41.3163
lfemur -59.2783 -19.8345 -2.93098
ltibia 33.0726
lfoot -2.25078 21.9888
ltoes -24.0045
608
root 1.09018 16.6341 1.2643 194.374 -84.5266 -187.326
lowerback 24.119 -0.0480281 1.49179
upperback -1.8727 -0.0549321 -2.38524
thorax -15.8369 -0.328363 -3.6117
lowerneck 0.309606 0.355072 -7.82312
upperneck 36.9112 -3.55477 7.22618
head 12.3828 -2.67989 3.68773
rclavicle 1.36167e-014 2.0276e-014
rhumerus 101.644 -22.0329 -67.702
rradius 29.3277
rwrist 10.6911
rhand -23.9915 41.1852
rfingers 7.12502
rthumb 2.48552 11.2199
lclavicle 1.36167e-014 2.0276e-014
lhumerus 105.871 14.9829 63.7033
lradius 33.1256
lwrist -34.7431
lhand -16.4688 20.4284
lfingers 7.12502
lthumb 9.74788 50.1828
rfemur -58.3444 9.72151 21.443
rtibia 37.735
rfoot -0.186529 -3.55966
rtoes 33.1569
lfemur -59.8136 -20.3438 -3.68975
ltibia 33.4945
lfoot -4.32608 22.5488
ltoes -21.5152
609
root 0.758653 16.4638 1.24545 188.131 -84.8002 -181.963
lowerback 24.2345 -0.185307 2.03796
upperback -2.07345 -0.0317639 -2.16481
thorax -16.1486 -0.358022 -3.68732
lowerneck 0.254178 0.319782 -7.88876
upperneck 37.1881 -3.58951 7.0517
head 12.5194 -2.74111 3.63186
rclavicle 4.37326e-015 4.37326e-015
rhumerus 101.256 -21.9463 -67.4278
rradius 29.613
rwrist 10.7673
rhand -23.5085 40.7527
rfingers 7.12502
rthumb 2.95198 10.7934
lclavicle 4.37326e-015 4.37326e-015
lhumerus 105.989 13.9819 65.0817
lradius 32.6653
lwrist -36.2557
lhand -16.0678 19.0314
lfingers 7.12502
lthumb 10.1348 48.7673
rfemur -58.321 8.7481 23.2471
rtibia 36.9198
rfoot 1.5899 -1.93307
rtoes 19.9944
lfemur -60.9419 -20.3141 -2.77978
ltibia 34.588
lfoot -6.17019 23.0078
ltoes -17.9726
610
root 0.462256 16.3622 1.20736 178.938 -84.8767 -173.626
lowerback 24.225 -0.218331 2.48848
upperback -2.26673 0.140174 -1.7238
thorax -16.3654 -0.296849 -3.49988
lowerneck 0.275539 0.391428 -8.6722
upperneck 37.3872 -3.56041 7.42769
head 12.6195 -2.81263 3.93145
rclavicle -1.10325e-014 2.26615e-014
rhumerus 101.342 -21.472 -67.5303
rradius 29.5753
rwrist 11.4727
rhand -23.047 40.2464
rfingers 7.12502
rthumb 3.39772 10.2938
lclavicle -1.10325e-014 2.26615e-014
lhumerus 106.265 13.0554 66.8847
lradius 32.0037
lwrist -37.7168
lhand -15.7283 16.4833
lfingers 7.12502
lthumb 10.4622 46.203
rfemur -58.6647 12.8733 20.5879
rtibia 36.0922
rfoot 0.258514 -6.32695
rtoes 34.2611
lfemur -61.8348 -20.035 -1.54308
ltibia 35.5993
lfoot -8.50377 23.0512
ltoes -5.91265
611
root 0.0900381 16.1858 1.17934 163.212 -84.7 -158.755
lowerback 24.1525 -0.323554 3.50235
upperback -2.45 0.418367 -1.07631
thorax -16.5259 -0.226647 -3.43185
lowerneck 0.876778 0.564977 -9.56894
upperneck 37.1758 -3.4301 7.94472
head 12.4099 -2.84091 4.30711
rclavicle 3.13086e-015 1.78906e-014
rhumerus 101.515 -20.838 -67.7167
rradius 29.4286
rwrist 11.9218
rhand -22.7188 39.6445
rfingers 7.12502
rthumb 3.71466 9.6971
lclavicle 3.13086e-015 1.78906e-014
lhumerus 105.442 13.4381 65.8817
lradius 32.3121
lwrist -37.7927
lhand -16.0585 19.1279
lfingers 7.12502
lthumb 10.1437 48.8634
rfemur -58.2175 12.3737 23.2166
rtibia 34.9374
rfoot 1.78954 -4.69579
rtoes 4.79736
lfemur -63.1645 -19.7837 0.284209
ltibia 37.2273
lfoot -11.1242 22.3357
ltoes 0.467197
612
root -0.235738 16.0835 1.14015 145.019 -83.8566 -141.492
lowerback 24.189 -0.523599 5.11336
upperback -2.59673 0.752552 -0.410255
thorax -16.6988 -0.191933 -3.70476
lowerneck 2.02479 0.647258 -9.43997
upperneck 36.3324 -3.32716 7.87668
head 11.8007 -2.78991 4.23846
rclavicle 1.07841e-014 4.77083e-015
rhumerus 101.578 -20.3267 -68.1817
rradius 29.4531
rwrist 12.4005
rhand -22.1481 39.5662
rfingers 7.12502
rthumb 4.26575 9.62922
lclavicle 1.07841e-014 4.77083e-015
lhumerus 105.48 13.1082 66.5326
lradius 32.0942
lwrist -38.0949
lhand -15.2743 19.0588
lfingers 7.12502
lthumb 10.9002 48.7559
rfemur -58.4303 14.8127 23.0371
rtibia 34.4018
rfoot -0.456222 -7.75657
rtoes 31.6484
lfemur -63.7957 -19.5143 2.63388
ltibia 37.9162
lfoot -12.2244 22.5532
ltoes -0.780395
613
root -0.672937 15.8675 1.10205 138.557 -83.0271 -135.829
lowerback 23.9923 -0.50361 5.78844
upperback -2.64341 1.0164 -0.126067
thorax -16.6114 -0.118085 -3.85332
lowerneck 2.36855 0.511744 -8.74763
upperneck 35.6561 -3.33769 7.34078
head 11.4355 -2.73875 3.88537
rclavicle -1.05356e-014 1.39149e-014
rhumerus 101.929 -20.0081 -69.0096
rradius 29.355
rwrist 13.0224
rhand -21.7417 39.6753
rfingers 7.12502
rthumb 4.65821 9.74648
lclavicle -1.05356e-014 1.39149e-014
lhumerus 105.723 12.7741 66.9345
lradius 31.9933
lwrist -38.2086
lhand -14.4105 18.6973
lfingers 7.12502
lthumb 11.7333 48.3487
rfemur -58.6514 16.1493 24.3151
rtibia 33.9402
rfoot 4.39858 -7.58974
rtoes -26.7328
lfemur -64.5993 -19.2152 3.85589
ltibia 38.7827
lfoot -10.9982 23.7128
ltoes -10.7175
614
root -1.00447 15.8036 1.03944 140.298 -82.9208 -138.163
lowerback 23.418 -0.294441 5.2892
upperback -2.8473 1.11536 -0.176172
thorax -16.5133 -0.0277929 -3.65271
lowerneck 3.04055 0.49957 -8.44556
upperneck 35.1043 -3.374 7.31654
head 11.0771 -2.72516 3.80575
rclavicle 5.91384e-015 3.97569e-016
rhumerus 102.015 -19.7599 -69.5956
rradius 29.0728
rwrist 13.385
rhand -21.2947 39.882
rfingers 7.12502
rthumb 5.08979 9.96309
lclavicle 5.91384e-015 3.97569e-016
lhumerus 105.584 12.6986 66.5018
lradius 31.9495
lwrist -37.9632
lhand -14.0789 18.5303
lfingers 7.12502
lthumb 12.053 48.1632
rfemur -59.1483 16.5329 23.3137
rtibia 34.0322
rfoot -1.30494 -9.11645
rtoes 40.2778
lfemur -64.8789 -18.7168 4.19327
ltibia 38.6667
lfoot -11.6276 23.1523
ltoes -7.21992
615
root -1.35436 15.7299 1.00266 137.508 -82.5167 -136.335
lowerback 23.274 -0.243206 5.46336
upperback -3.0067 1.27274 0.0722371
thorax -16.6116 0.0364219 -3.51723
lowerneck 3.82378 0.722147 -9.1596
upperneck 34.6079 -3.31767 8.24794
head 10.737 -2.7171 4.28144
rclavicle 8.22472e-015 5.1684e-015
rhumerus 101.619 -19.7884 -69.1268
rradius 29.1854
rwrist 12.8379
rhand -20.6971 39.8518
rfingers 7.12502
rthumb 5.66677 9.94759
lclavicle 8.22472e-015 5.1684e-015
lhumerus 105.667 12.5118 66.9854
lradius 31.4328
lwrist -38.0795
lhand -13.9764 17.7937
lfingers 7.12502
lthumb 12.1518 47.4208
rfemur -59.6072 18.1135 22.601
rtibia 34.0402
rfoot -1.53431 -10.9256
rtoes 37.3468
lfemur -64.9319 -18.5141 4.98034
ltibia 38.6736
lfoot -12.3538 22.5523
ltoes -4.71016
616
root -1.69715 15.666 0.970845 132.671 -81.9002 -133.018
lowerback 23.7063 -0.348565 6.17184
upperback -2.91102 1.42565 0.47594
thorax -16.738 0.0572611 -3.51225
lowerneck 3.90555 0.992986 -10.8964
upperneck 34.3612 -3.22822 9.73626
head 10.6412 -2.75178 5.16421
rclavicle 1.99282e-014 1.07344e-014
rhumerus 101.309 -19.9208 -68.1366
rradius 29.4874
rwrist 11.8744
rhand -20.3344 39.2076
rfingers 7.12502
rthumb 6.01699 9.31306
lclavicle 1.99282e-014 1.07344e-014
lhumerus 105.649 12.4097 67.7461
lradius 31.18
lwrist -38.4891
lhand -13.6642 18.1174
lfingers 7.12502
lthumb 12.4529 47.7264
rfemur -59.0925 18.9366 23.0113
rtibia 34.0507
rfoot -1.96846 -11.8232
rtoes 39.0366
lfemur -64.2308 -18.6 5.92289
ltibia 38.3082
lfoot -13.5061 21.8678
ltoes 0.409564
617
root -2.05709 15.5793 0.957299 129.319 -81.6876 -131.172
lowerback 23.9349 -0.550295 6.78542
upperback -2.75488 1.37501 0.674055
thorax -16.6842 -0.00778019 -3.61401
lowerneck 4.04105 1.21116 -12.2715
upperneck 34.049 -3.13436 10.8858
head 10.4976 -2.76963 5.85311
rclavicle -1.2014e-014 -2.00773e-014
rhumerus 101.217 -19.9551 -67.5746
rradius 29.6524
rwrist 11.104
rhand -20.1602 38.5098
rfingers 7.12502
rthumb 6.18517 8.62014
lclavicle -1.2014e-014 -2.00773e-014
lhumerus 105.648 12.4645 68.0916
lradius 31.0994
lwrist -38.9565
lhand -13.0214 19.8624
lfingers 7.12502
lthumb 13.0726 49.4327
rfemur -58.7716 19.5005 22.9388
rtibia 34.3956
rfoot -3.19616 -12.6793
rtoes 42.5508
lfemur -63.6152 -19.0044 6.37879
ltibia 37.6122
lfoot -11.587 22.6193
ltoes -3.66725
